<?xml version="1.0" encoding="UTF-8"?>
<svg id="Capa_2" data-name="Capa 2" xmlns="http://www.w3.org/2000/svg" version="1.1" viewBox="0 0 1984 593.8">
  <defs>
    <style>
      .cls-1 {
        stroke-width: 0px;
      }

      .cls-1, .cls-2, .cls-3 {
        fill: #0a71fa;
      }

      .cls-2 {
        letter-spacing: 0em;
      }

      .cls-2, .cls-4, .cls-5, .cls-3, .cls-6, .cls-7, .cls-8 {
        isolation: isolate;
      }

      .cls-2, .cls-3 {
        font-family: Liquorstore-Regular, Liquorstore;
        font-size: 299.4px;
      }

      .cls-4 {
        letter-spacing: 0em;
      }

      .cls-4, .cls-5, .cls-6, .cls-7 {
        fill: #0a72fb;
        font-family: Arboria-Medium, Arboria;
        font-size: 62.4px;
        font-weight: 500;
      }

      .cls-5 {
        letter-spacing: 0em;
      }

      .cls-7 {
        letter-spacing: 0em;
      }
    </style>
  </defs>
  <g id="Capa_7" data-name="Capa 7">
    <g>
      <g>
        <g class="cls-8">
          <text class="cls-6" transform="translate(777.1 463.9)"><tspan x="0" y="0">SOFT</tspan></text>
          <text class="cls-5" transform="translate(936.6 463.9)"><tspan x="0" y="0">W</tspan></text>
          <text class="cls-6" transform="translate(991.6 463.9)"><tspan x="0" y="0">ARE DEVE</tspan></text>
          <text class="cls-7" transform="translate(1292 463.9)"><tspan x="0" y="0">L</tspan></text>
          <text class="cls-6" transform="translate(1328.5 463.9)"><tspan x="0" y="0">OPE</tspan></text>
          <text class="cls-6" transform="translate(1456.2 463.9)"><tspan x="0" y="0">R</tspan></text>
          <text class="cls-6" transform="translate(1497.5 463.9)"><tspan x="0" y="0">S IN MAL</tspan></text>
          <text class="cls-7" transform="translate(1753.8 463.9)"><tspan x="0" y="0">L</tspan></text>
          <text class="cls-6" transform="translate(1790.4 463.9)"><tspan x="0" y="0">OR</tspan></text>
          <text class="cls-4" transform="translate(1880 463.9)"><tspan x="0" y="0">C</tspan></text>
          <text class="cls-6" transform="translate(1920.5 463.9)"><tspan x="0" y="0">A</tspan></text>
        </g>
        <g class="cls-8">
          <text class="cls-3" transform="translate(763.5 361.7)"><tspan x="0" y="0">Balea</tspan></text>
          <text class="cls-2" transform="translate(1419.2 361.7)"><tspan x="0" y="0">T</tspan></text>
          <text class="cls-3" transform="translate(1546.8 360.9) rotate(.2)"><tspan x="0" y="0">ech</tspan></text>
        </g>
      </g>
      <path class="cls-1" d="M378.4,56.7l72.8,72.8-38.6,38.6,80.9,80.9,38.6-38.6,72.8,72.8-38.6,38.6-72.8,72.8-52.4,52.4-72.8,72.8-17.1,17.2-72.8-72.8,17.1-17.1-80.9-80.9-85.1,85-72.8-72.8,85.1-85,72.8-72.8,52.4-52.4,72.8-72.8,38.6-38.6M315.6,321.5l52.4-52.4-28.2-28.2-52.4,52.4,28.2,28.2M368.3,374.3l52.4-52.4-29.9-29.9-52.4,52.4,29.9,29.9M378.4,0l-28.4,28.4-38.6,38.6-72.8,72.8-52.4,52.4-72.8,72.8-85.1,85L0,378.4l28.4,28.4,72.8,72.8,28.4,28.4,28.4-28.4,56.7-56.7,24.2,24.2-17.1,17.1,28.4,28.4,72.8,72.8,28.4,28.3,28.4-28.3,17.1-17.2,72.8-72.8,52.4-52.4,72.8-72.8,38.6-38.6,28.3-28.4-28.3-28.4-72.8-72.8-28.3-28.4-28.4,28.4-10.2,10.2-24.2-24.2,10.3-10.3,28.4-28.4-28.4-28.3-72.8-72.8L378.4,0h0Z"/>
    </g>
  </g>
</svg>