<?xml version="1.0" encoding="UTF-8"?>
<svg id="Capa_2" data-name="Capa 2" xmlns="http://www.w3.org/2000/svg" viewBox="0 0 661.6 593.78">
  <defs>
    <style>
      .cls-1 {
        fill: #0a71fa;
        stroke-width: 0px;
      }
    </style>
  </defs>
  <g id="Capa_7" data-name="Capa 7">
    <path class="cls-1" d="M378.41,56.7l72.82,72.82-38.64,38.64,80.92,80.92,38.56-38.56,72.82,72.82-38.56,38.56-72.82,72.82-52.37,52.37-72.82,72.82-17.15,17.15-72.82-72.82,17.15-17.15-80.92-80.92-85.05,85.05-72.82-72.82,85.05-85.05,72.82-72.82,52.37-52.37,72.82-72.82,38.64-38.64M315.59,321.55l52.37-52.37-28.19-28.19-52.37,52.37,28.19,28.19M368.32,374.28l52.37-52.37-29.86-29.86-52.37,52.37,29.86,29.86M378.41,0l-28.35,28.35-38.63,38.64-72.82,72.82-52.37,52.37-72.82,72.82-85.05,85.05L0,378.41l28.35,28.35,72.82,72.82,28.35,28.35,28.35-28.35,56.7-56.7,24.22,24.22-17.15,17.15,28.35,28.35,72.82,72.82,28.35,28.35,28.35-28.35,17.15-17.15,72.82-72.82,52.37-52.37,72.82-72.82,38.56-38.56,28.35-28.35-28.35-28.35-72.82-72.82-28.35-28.35-28.35,28.35-10.2,10.2-24.22-24.22,10.28-10.28,28.35-28.35-28.35-28.35-72.82-72.82L378.41,0h0Z"/>
  </g>
</svg>