<?xml version="1.0" encoding="UTF-8"?>
<svg id="Capa_2" data-name="Capa 2" xmlns="http://www.w3.org/2000/svg" version="1.1" viewBox="0 0 1187.8 321.9">
  <defs>
    <style>
      .cls-1 {
        fill: #0a71fa;
      }

      .cls-1, .cls-2 {
        stroke-width: 0px;
      }

      .cls-2 {
        fill: #0a72fb;
      }

      .cls-3 {
        isolation: isolate;
      }
    </style>
  </defs>
  <g id="Capa_7" data-name="Capa 7">
    <g>
      <g>
        <path class="cls-2" d="M0,316.5l2.8-5.5c3.3,2.7,7.4,4.7,13.4,4.7s8.7-2.1,8.7-5.7-4.2-4.8-8.3-5.8c-7.4-1.7-15.1-4.1-15.1-12.2s7.2-11.4,14.7-11.4,10.3,1.6,14.4,4.4l-2.8,5.6c-3.6-2.3-7.4-3.4-11.6-3.4s-7.3,1.1-7.3,4.8,3.6,4.3,8.5,5.5c7.7,1.8,15.1,4.7,15.1,12.6s-8.4,12.3-16.4,12.3-13.5-3.3-16.2-5.8h.1Z"/>
        <path class="cls-2" d="M38.2,301.5c0-11.6,9.1-20.9,21.3-20.9s21.3,9.3,21.3,20.9-9.1,20.9-21.3,20.9-21.3-9.2-21.3-20.9ZM73.3,301.5c0-7.8-5.9-14.3-13.7-14.3s-13.8,6.5-13.8,14.3,5.9,14.3,13.8,14.3,13.7-6.5,13.7-14.3Z"/>
        <path class="cls-2" d="M87.9,281.2h29.8v6.2h-22.6v9.9h19.1v6.2h-19.1v18.2h-7.2v-40.5h0Z"/>
        <path class="cls-2" d="M134.2,287.5h-14.2v-6.2h35.7v6.2h-14.2v34.2h-7.2v-34.2h-.1Z"/>
        <path class="cls-2" d="M157.8,281.2h7.2l7.7,24.4c1,3.2,1.9,6.8,1.9,6.8,0,0,.9-3.5,1.7-6.8l6.4-24.4h7.7l6.4,24.4c.9,3.2,1.6,6.8,1.6,6.8,0,0,.9-3.5,1.9-6.8l7.7-24.4h7.2l-12.9,40.6h-7.7l-6.5-23.5c-.9-3.5-1.6-8-1.6-8,0,0-.7,4.5-1.6,8l-6.5,23.5h-7.7l-12.9-40.6h0Z"/>
        <path class="cls-2" d="M231.1,281.2h6.9l18.2,40.5h-7.4l-3.2-7h-22.2l-3.2,7h-7.4l18.2-40.5h0ZM243.2,309l-4.6-10.5c-1.7-4-4-9.4-4-9.4,0,0-2.2,5.4-4,9.4l-4.6,10.5h17.2Z"/>
        <path class="cls-2" d="M261.2,281.2h17.1c11.6,0,17.8,6.9,17.8,15.5s-2.9,10.6-8.3,13.1l8.9,11.9h-8.4l-7.1-9.9c-1.1.2-2.4.3-3.6.3h-9.2v9.6h-7.2v-40.5h0ZM278.7,305.9c5.8,0,9.9-4.1,9.9-9.2s-4.1-9.3-9.8-9.3h-10.2v18.5h10.2-.1Z"/>
        <path class="cls-2" d="M302.9,281.2h31.4v6.2h-24.2v9.9h22.8v6.2h-22.8v11.9h25.1v6.2h-32.3v-40.5h0Z"/>
        <path class="cls-2" d="M354.7,281.2h15.9c13.2,0,21.5,9.2,21.5,20.2s-8.3,20.2-21.5,20.2h-15.9v-40.5h0ZM370.3,315.5c8.6,0,14.2-5.9,14.2-14s-5.7-14-14.2-14h-8.3v28h8.3Z"/>
        <path class="cls-2" d="M399.1,281.2h31.4v6.2h-24.2v9.9h22.8v6.2h-22.8v11.9h25.1v6.2h-32.3v-40.5h0Z"/>
        <path class="cls-2" d="M433.6,281.2h7.4l9.7,23.2c1.2,2.9,3.2,9.1,3.2,9.1,0,0,2-6.1,3.2-9.1l9.7-23.2h7.4l-16.8,40.6h-7.1l-16.8-40.6h0Z"/>
        <path class="cls-2" d="M479.2,281.2h31.4v6.2h-24.2v9.9h22.8v6.2h-22.8v11.9h25.1v6.2h-32.3v-40.5h0Z"/>
        <path class="cls-2" d="M517.3,281.2h7.2v34.2h24.2v6.2h-31.5v-40.5h0Z"/>
        <path class="cls-2" d="M552.3,301.5c0-11.6,9.1-20.9,21.3-20.9s21.3,9.3,21.3,20.9-9.1,20.9-21.3,20.9-21.3-9.2-21.3-20.9ZM587.3,301.5c0-7.8-5.9-14.3-13.7-14.3s-13.8,6.5-13.8,14.3,5.9,14.3,13.8,14.3,13.7-6.5,13.7-14.3Z"/>
        <path class="cls-2" d="M602,281.2h17.1c11.6,0,17.8,6.9,17.8,15.4s-6.2,15.4-17.9,15.4h-9.8v9.6h-7.2v-40.5h0ZM619.5,305.8c6.1,0,9.8-4.1,9.8-9.2s-3.8-9.2-9.8-9.2h-10.3v18.4h10.3Z"/>
        <path class="cls-2" d="M643.6,281.2h31.4v6.2h-24.2v9.9h22.8v6.2h-22.8v11.9h25.1v6.2h-32.3v-40.5h0Z"/>
        <path class="cls-2" d="M681.7,281.2h17.1c11.6,0,17.8,6.9,17.8,15.5s-2.9,10.6-8.3,13.1l8.9,11.9h-8.4l-7.1-9.9c-1.1.2-2.4.3-3.6.3h-9.2v9.6h-7.2v-40.5h0ZM699.1,305.9c5.8,0,9.9-4.1,9.9-9.2s-4.1-9.3-9.8-9.3h-10.2v18.5h10.2-.1Z"/>
        <path class="cls-2" d="M721.4,316.5l2.8-5.5c3.3,2.7,7.4,4.7,13.4,4.7s8.7-2.1,8.7-5.7-4.2-4.8-8.3-5.8c-7.4-1.7-15.1-4.1-15.1-12.2s7.2-11.4,14.7-11.4,10.3,1.6,14.4,4.4l-2.8,5.6c-3.6-2.3-7.4-3.4-11.6-3.4s-7.3,1.1-7.3,4.8,3.6,4.3,8.5,5.5c7.7,1.8,15.1,4.7,15.1,12.6s-8.4,12.3-16.4,12.3-13.5-3.3-16.2-5.8h0Z"/>
        <path class="cls-2" d="M790.2,281.2h7.4l14.5,19.9c2.9,3.9,6.2,9.6,6.2,9.6v-29.4h7.2v40.5h-7.5l-13.8-18.9c-3.5-4.8-6.8-10.3-6.8-10.3v29.2h-7.2v-40.5h0Z"/>
        <path class="cls-2" d="M847.7,281.2h6.3l5.6,7.9c2.9,4,9.2,13,9.2,13,0,0,6.3-8.9,9.1-12.9l5.6-7.9h6.3v40.5h-7.2v-28.1s-1.3,2.3-3.9,6.1l-9.9,14.2-10.1-14.4c-2.5-3.6-3.8-5.9-3.8-5.9v28.1h-7.2v-40.5h0Z"/>
        <path class="cls-2" d="M913.2,281.2h6.9l18.2,40.5h-7.4l-3.2-7h-22.2l-3.2,7h-7.4l18.2-40.5h.1ZM925.2,309l-4.6-10.5c-1.7-4-4-9.4-4-9.4,0,0-2.2,5.4-4,9.4l-4.6,10.5h17.2,0Z"/>
        <path class="cls-2" d="M943.3,281.2h7.2v34.2h24.2v6.2h-31.5v-40.5h0Z"/>
        <path class="cls-2" d="M981.3,281.2h7.2v34.2h24.2v6.2h-31.5v-40.5h0Z"/>
        <path class="cls-2" d="M1016.3,301.5c0-11.6,9.1-20.9,21.3-20.9s21.3,9.3,21.3,20.9-9.1,20.9-21.3,20.9-21.3-9.2-21.3-20.9ZM1051.3,301.5c0-7.8-5.9-14.3-13.7-14.3s-13.8,6.5-13.8,14.3,5.9,14.3,13.8,14.3,13.7-6.5,13.7-14.3Z"/>
        <path class="cls-2" d="M1065.9,281.2h17.1c11.6,0,17.8,6.9,17.8,15.5s-2.9,10.6-8.3,13.1l8.9,11.9h-8.4l-7.1-9.9c-1.1.2-2.4.3-3.6.3h-9.2v9.6h-7.2v-40.5h0ZM1083.4,305.9c5.8,0,9.9-4.1,9.9-9.2s-4.1-9.3-9.8-9.3h-10.2v18.5h10.2,0Z"/>
        <path class="cls-2" d="M1106.1,301.4c0-11.5,9.1-20.8,21.3-20.8s10.1,1.7,13.6,4.7l-4.2,4.9c-2.7-2.1-5.7-3.1-8.9-3.1-8.4,0-14.2,6.5-14.2,14.2s5.9,14.4,13.8,14.4,7.6-1.4,10.2-4l4.4,5c-3.8,3.4-8.9,5.6-14.7,5.6-12.2,0-21.3-9.3-21.3-20.9h0Z"/>
        <path class="cls-2" d="M1162.7,281.2h6.9l18.2,40.5h-7.4l-3.2-7h-22.2l-3.2,7h-7.4l18.2-40.5h0ZM1174.8,309l-4.6-10.5c-1.7-4-4-9.4-4-9.4,0,0-2.2,5.4-4,9.4l-4.6,10.5h17.2Z"/>
        <g class="cls-3">
          <g class="cls-3">
            <path class="cls-2" d="M772.7,281.3h7.1v40.2h-7.1v-40.2Z"/>
          </g>
        </g>
      </g>
      <g>
        <path class="cls-1" d="M86.9,219.5H.3V27.6h84.7c14.4,0,26.3,11.1,26.3,25.4v51.2c0,13.8-7.8,21-18.3,21.6,11.4,1.2,19.2,11.7,19.2,25.4v43.4c0,14.4-11.1,24.9-25.4,24.9h.1ZM73.4,63.8h-35.3v41.6h35.3s0-41.6,0-41.6ZM74.3,139.6h-35.3v41h35.3v-41Z"/>
        <path class="cls-1" d="M170.7,219.5c-14.4,0-26.4-11.1-26.4-25.4v-60.2c0-14.4,7.2-21.9,18.9-21.9h58.4v-19.2h-70.7l-.3-35.9h87.4c12.6,0,22.2,7.5,22.2,21.9v140.7h-89.5ZM222.5,145.6h-40.1v38.6h40.1v-38.6Z"/>
        <path class="cls-1" d="M291.7,219.5V.3h38.6v219.2h-38.6Z"/>
        <path class="cls-1" d="M460,164.4h-58.4v20.1h70.7l.3,35h-87.4c-12.6,0-22.2-7.5-22.2-21.9V56.9h89.5c14.4,0,26.4,11.1,26.4,25.4v60.2c0,14.4-7.2,21.9-18.9,21.9h0ZM440.8,93.2h-40.1v38.6h40.1s0-38.6,0-38.6Z"/>
        <path class="cls-1" d="M535.4,219.5c-14.4,0-26.4-11.1-26.4-25.4v-60.2c0-14.4,7.2-21.9,18.9-21.9h58.4v-19.2h-70.7l-.3-35.9h87.4c12.6,0,22.2,7.5,22.2,21.9v140.7h-89.5ZM587.2,145.6h-40.1v38.6h40.1v-38.6Z"/>
        <path class="cls-1" d="M725.2,64.7v154.8h-38.3V64.7h-42.2V27.6h122.8v37.1h-42.3Z"/>
        <path class="cls-1" d="M878.9,164.4h-58.4v20.1h70.7l.3,35h-87.4c-12.6,0-22.2-7.5-22.2-21.9V56.9h89.5c14.4,0,26.3,11.1,26.3,25.4v60.2c0,14.4-7.2,21.9-18.9,21.9h.1ZM859.7,93.2h-40.1v38.6h40.1s0-38.6,0-38.6Z"/>
        <path class="cls-1" d="M957,219.5c-14.4,0-26.3-11.1-26.3-25.4v-115.3c0-14.4,7.2-21.9,18.9-21.9h69.8c17.1,0,21,7.2,21,20.7v36.5h-32v-23.7h-40.7v92.8h72.8v36.2h-83.5Z"/>
        <path class="cls-1" d="M1148.7,219.5v-126.1h-35.3v126.1h-37.7V.3h37.4v56.6h47.3c14.4,0,26.3,11.1,26.3,25.5v137.1h-38Z"/>
      </g>
    </g>
  </g>
</svg>