<?xml version="1.0" encoding="UTF-8"?>
<svg id="Capa_2" data-name="Capa 2" xmlns="http://www.w3.org/2000/svg" viewBox="0 0 1187.84 321.87">
  <defs>
    <style>
      .cls-1 {
        fill: #0a72fb;
        stroke-width: 0px;
      }

      .cls-2 {
        fill: #0a71fa;
        stroke: #1d1d1b;
        stroke-miterlimit: 10;
        stroke-width: .66px;
      }
    </style>
  </defs>
  <g id="Capa_7" data-name="Capa 7">
    <g>
      <g>
        <path class="cls-1" d="M.07,316.21l2.74-5.35c3.22,2.61,7.18,4.62,13.07,4.62,4.26,0,8.51-2.01,8.51-5.59s-4.07-4.68-8.09-5.66c-7.24-1.7-14.71-4.01-14.71-11.86,0-7.36,6.99-11.13,14.29-11.13,5.66,0,10.03,1.58,13.99,4.26l-2.74,5.41c-3.53-2.25-7.18-3.28-11.25-3.28-2.61,0-7.11,1.09-7.11,4.68,0,3.16,3.53,4.2,8.27,5.35,7.48,1.76,14.71,4.56,14.71,12.22,0,8.27-8.15,11.98-15.93,11.98-8.57,0-13.13-3.22-15.75-5.66Z"/>
        <path class="cls-1" d="M37.22,301.56c0-11.25,8.82-20.31,20.73-20.31s20.74,9.06,20.74,20.31-8.82,20.31-20.74,20.31-20.73-9-20.73-20.31ZM71.34,301.56c0-7.6-5.72-13.92-13.32-13.92s-13.44,6.32-13.44,13.92,5.72,13.92,13.44,13.92,13.32-6.32,13.32-13.92Z"/>
        <path class="cls-1" d="M85.56,281.86h29v6.08h-21.95v9.61h18.55v6.02h-18.55v17.69h-7.05v-39.4Z"/>
        <path class="cls-1" d="M130.62,287.94h-13.86v-6.08h34.78v6.08h-13.86v33.32h-7.05v-33.32Z"/>
        <path class="cls-1" d="M153.54,281.86h7.05l7.48,23.78c.97,3.1,1.82,6.57,1.82,6.57,0,0,.85-3.41,1.64-6.57l6.2-23.78h7.54l6.2,23.78c.85,3.16,1.58,6.57,1.58,6.57,0,0,.91-3.41,1.88-6.57l7.48-23.78h7.05l-12.59,39.52h-7.48l-6.32-22.86c-.91-3.41-1.58-7.78-1.58-7.78,0,0-.67,4.38-1.58,7.78l-6.32,22.86h-7.54l-12.53-39.52Z"/>
        <path class="cls-1" d="M224.92,281.86h6.69l17.75,39.4h-7.17l-3.1-6.81h-21.65l-3.1,6.81h-7.17l17.75-39.4ZM236.66,308.86l-4.5-10.22c-1.7-3.89-3.89-9.18-3.89-9.18,0,0-2.13,5.23-3.89,9.18l-4.5,10.22h16.78Z"/>
        <path class="cls-1" d="M254.23,281.86h16.66c11.31,0,17.33,6.75,17.33,15.08,0,5.29-2.86,10.28-8.09,12.77l8.7,11.55h-8.21l-6.87-9.61c-1.09.18-2.31.3-3.53.3h-8.94v9.3h-7.05v-39.4ZM271.19,305.88c5.66,0,9.61-4.01,9.61-8.94s-3.95-9.06-9.55-9.06h-9.97v18h9.91Z"/>
        <path class="cls-1" d="M294.78,281.86h30.59v6.08h-23.53v9.61h22.19v6.02h-22.19v11.61h24.38v6.08h-31.44v-39.4Z"/>
        <path class="cls-1" d="M345.19,281.86h15.45c12.83,0,20.92,8.94,20.92,19.7s-8.09,19.7-20.92,19.7h-15.45v-39.4ZM360.33,315.18c8.33,0,13.86-5.78,13.86-13.62s-5.53-13.62-13.86-13.62h-8.09v27.24h8.09Z"/>
        <path class="cls-1" d="M388.42,281.86h30.59v6.08h-23.53v9.61h22.19v6.02h-22.19v11.61h24.38v6.08h-31.44v-39.4Z"/>
        <path class="cls-1" d="M421.98,281.86h7.17l9.42,22.56c1.16,2.86,3.1,8.82,3.1,8.82,0,0,1.95-5.96,3.1-8.82l9.42-22.56h7.24l-16.3,39.52h-6.87l-16.3-39.52Z"/>
        <path class="cls-1" d="M466.3,281.86h30.59v6.08h-23.53v9.61h22.19v6.02h-22.19v11.61h24.38v6.08h-31.44v-39.4Z"/>
        <path class="cls-1" d="M503.39,281.86h7.05v33.32h23.59v6.08h-30.65v-39.4Z"/>
        <path class="cls-1" d="M537.44,301.56c0-11.25,8.82-20.31,20.73-20.31s20.74,9.06,20.74,20.31-8.82,20.31-20.74,20.31-20.73-9-20.73-20.31ZM571.55,301.56c0-7.6-5.72-13.92-13.32-13.92s-13.44,6.32-13.44,13.92,5.72,13.92,13.44,13.92,13.32-6.32,13.32-13.92Z"/>
        <path class="cls-1" d="M585.78,281.86h16.6c11.31,0,17.33,6.75,17.33,15.02s-6.02,15.02-17.39,15.02h-9.49v9.36h-7.05v-39.4ZM602.81,305.82c5.9,0,9.55-4.01,9.55-8.94s-3.65-8.94-9.49-8.94h-10.03v17.88h9.97Z"/>
        <path class="cls-1" d="M626.27,281.86h30.59v6.08h-23.53v9.61h22.19v6.02h-22.19v11.61h24.38v6.08h-31.44v-39.4Z"/>
        <path class="cls-1" d="M663.36,281.86h16.66c11.31,0,17.33,6.75,17.33,15.08,0,5.29-2.86,10.28-8.09,12.77l8.7,11.55h-8.21l-6.87-9.61c-1.09.18-2.31.3-3.53.3h-8.94v9.3h-7.05v-39.4ZM680.33,305.88c5.66,0,9.61-4.01,9.61-8.94s-3.95-9.06-9.55-9.06h-9.97v18h9.91Z"/>
        <path class="cls-1" d="M702.03,316.21l2.74-5.35c3.22,2.61,7.18,4.62,13.07,4.62,4.26,0,8.51-2.01,8.51-5.59s-4.07-4.68-8.09-5.66c-7.24-1.7-14.71-4.01-14.71-11.86,0-7.36,6.99-11.13,14.29-11.13,5.66,0,10.03,1.58,13.99,4.26l-2.74,5.41c-3.53-2.25-7.18-3.28-11.25-3.28-2.61,0-7.11,1.09-7.11,4.68,0,3.16,3.53,4.2,8.27,5.35,7.48,1.76,14.71,4.56,14.71,12.22,0,8.27-8.15,11.98-15.93,11.98-8.57,0-13.13-3.22-15.75-5.66Z"/>
        <path class="cls-1" d="M752.5,301.56c0-11.25,8.82-20.31,20.73-20.31s20.74,9.06,20.74,20.31-8.82,20.31-20.74,20.31-20.73-9-20.73-20.31ZM786.61,301.56c0-7.6-5.72-13.92-13.32-13.92s-13.44,6.32-13.44,13.92,5.72,13.92,13.44,13.92,13.32-6.32,13.32-13.92Z"/>
        <path class="cls-1" d="M800.84,281.86h7.18l14.11,19.34c2.8,3.83,6.02,9.3,6.02,9.3v-28.64h7.05v39.4h-7.3l-13.44-18.36c-3.41-4.68-6.57-10.03-6.57-10.03v28.4h-7.05v-39.4Z"/>
        <path class="cls-1" d="M856.89,281.86h6.14l5.47,7.66c2.8,3.89,8.94,12.65,8.94,12.65,0,0,6.14-8.7,8.88-12.59l5.47-7.72h6.14v39.4h-7.05v-27.36s-1.22,2.19-3.77,5.9l-9.67,13.86-9.79-13.99c-2.43-3.53-3.71-5.78-3.71-5.78v27.36h-7.05v-39.4Z"/>
        <path class="cls-1" d="M920.56,281.86h6.69l17.75,39.4h-7.17l-3.1-6.81h-21.65l-3.1,6.81h-7.17l17.75-39.4ZM932.29,308.86l-4.5-10.22c-1.7-3.89-3.89-9.18-3.89-9.18,0,0-2.13,5.23-3.89,9.18l-4.5,10.22h16.78Z"/>
        <path class="cls-1" d="M949.86,281.86h7.05v33.32h23.59v6.08h-30.65v-39.4Z"/>
        <path class="cls-1" d="M986.83,281.86h7.05v33.32h23.59v6.08h-30.65v-39.4Z"/>
        <path class="cls-1" d="M1020.88,301.56c0-11.25,8.82-20.31,20.73-20.31s20.74,9.06,20.74,20.31-8.82,20.31-20.74,20.31-20.73-9-20.73-20.31ZM1054.99,301.56c0-7.6-5.72-13.92-13.32-13.92s-13.44,6.32-13.44,13.92,5.72,13.92,13.44,13.92,13.32-6.32,13.32-13.92Z"/>
        <path class="cls-1" d="M1069.22,281.86h16.66c11.31,0,17.33,6.75,17.33,15.08,0,5.29-2.86,10.28-8.09,12.77l8.7,11.55h-8.21l-6.87-9.61c-1.09.18-2.31.3-3.53.3h-8.94v9.3h-7.05v-39.4ZM1086.18,305.88c5.66,0,9.61-4.01,9.61-8.94s-3.95-9.06-9.55-9.06h-9.97v18h9.91Z"/>
        <path class="cls-1" d="M1108.25,301.5c0-11.19,8.82-20.25,20.73-20.25,5.11,0,9.79,1.7,13.26,4.62l-4.07,4.74c-2.67-2.07-5.59-2.98-8.7-2.98-8.15,0-13.86,6.32-13.86,13.86s5.72,13.99,13.44,13.99c3.83,0,7.36-1.4,9.91-3.89l4.32,4.86c-3.65,3.34-8.63,5.41-14.29,5.41-11.92,0-20.73-9.06-20.73-20.37Z"/>
        <path class="cls-1" d="M1163.4,281.86h6.69l17.75,39.4h-7.17l-3.1-6.81h-21.65l-3.1,6.81h-7.17l17.75-39.4ZM1175.13,308.86l-4.5-10.22c-1.7-3.89-3.89-9.18-3.89-9.18,0,0-2.13,5.23-3.89,9.18l-4.5,10.22h16.78Z"/>
      </g>
      <g>
        <path class="cls-2" d="M86.87,219.52H.33V27.58h84.74c14.37,0,26.35,11.08,26.35,25.45v51.2c0,13.77-7.79,20.96-18.27,21.56,11.38,1.2,19.16,11.68,19.16,25.45v43.42c0,14.37-11.08,24.85-25.45,24.85ZM73.39,63.81h-35.33v41.62h35.33v-41.62ZM74.29,139.57h-35.33v41.02h35.33v-41.02Z"/>
        <path class="cls-2" d="M170.71,219.52c-14.37,0-26.35-11.08-26.35-25.45v-60.19c0-14.37,7.19-21.86,18.87-21.86h58.39v-19.16h-70.67l-.3-35.93h87.44c12.58,0,22.16,7.49,22.16,21.86v140.74h-89.53ZM222.51,145.56h-40.12v38.63h40.12v-38.63Z"/>
        <path class="cls-2" d="M291.68,219.52V.33h38.63v219.19h-38.63Z"/>
        <path class="cls-2" d="M459.96,164.42h-58.39v20.06h70.67l.3,35.03h-87.44c-12.58,0-22.16-7.49-22.16-21.86V56.92h89.53c14.37,0,26.35,11.08,26.35,25.45v60.19c0,14.37-7.19,21.86-18.87,21.86ZM440.79,93.15h-40.12v38.63h40.12v-38.63Z"/>
        <path class="cls-2" d="M535.41,219.52c-14.37,0-26.35-11.08-26.35-25.45v-60.19c0-14.37,7.19-21.86,18.87-21.86h58.39v-19.16h-70.67l-.3-35.93h87.44c12.58,0,22.16,7.49,22.16,21.86v140.74h-89.53ZM587.21,145.56h-40.12v38.63h40.12v-38.63Z"/>
        <path class="cls-2" d="M725.25,64.71v154.81h-38.33V64.71h-42.22V27.58h122.77v37.13h-42.22Z"/>
        <path class="cls-2" d="M878.86,164.42h-58.39v20.06h70.67l.3,35.03h-87.44c-12.58,0-22.16-7.49-22.16-21.86V56.92h89.53c14.37,0,26.35,11.08,26.35,25.45v60.19c0,14.37-7.19,21.86-18.87,21.86ZM859.7,93.15h-40.12v38.63h40.12v-38.63Z"/>
        <path class="cls-2" d="M957.01,219.52c-14.37,0-26.35-11.08-26.35-25.45v-115.28c0-14.37,7.19-21.86,18.86-21.86h69.77c17.07,0,20.96,7.19,20.96,20.66v36.53h-32.04v-23.66h-40.72v92.83h72.76v36.23h-83.24Z"/>
        <path class="cls-2" d="M1148.65,219.52v-126.06h-35.33v126.06h-37.73V.33h37.43v56.59h47.31c14.37,0,26.35,11.08,26.35,25.45v137.14h-38.03Z"/>
      </g>
    </g>
  </g>
</svg>